<?xml version="1.0" encoding="UTF-8"?>
<svg width="24px" height="24px" viewBox="0 0 24 24" version="1.1" xmlns="http://www.w3.org/2000/svg">
    <path d="M12 0C5.373 0 0 5.373 0 12s5.373 12 12 12 12-5.373 12-12S18.627 0 12 0zm6.015 16.5c-.24.66-1.2 1.2-1.98 1.38-.53.12-1.23.21-3.57-.75-3-1.2-4.92-4.17-5.07-4.38-.15-.18-1.2-1.62-1.2-3.09s.72-2.19.99-2.49c.21-.24.48-.36.72-.36l.51.03c.18 0 .42-.03.63.48s.81 1.98.87 2.13c.06.15.12.33.03.51-.09.21-.15.3-.3.48s-.21.24-.36.39c-.12.12-.24.24-.15.48.09.21.39.93 1.38 1.98.93.99 1.74 1.32 2.01 1.47.21.12.45.09.6-.06.18-.18.39-.48.6-.78.15-.21.33-.18.57-.09s1.47.69 1.74.81c.27.12.45.18.51.27.06.09.06.54-.12 1.05z" fill="#FFFFFF"/>
</svg>
